<svg width="40" height="40" viewBox="0 0 40 40" fill="none" xmlns="http://www.w3.org/2000/svg">
  <!-- Shield background -->
  <path d="M20 4L32 10V18C32 26.5 26.5 34 20 36C13.5 34 8 26.5 8 18V10L20 4Z" fill="#1e293b"/>
  
  <!-- Inner shield -->
  <path d="M20 7L28 11V17C28 23.5 24.5 29 20 31C15.5 29 12 23.5 12 17V11L20 7Z" fill="#3b82f6"/>
  
  <!-- P letter -->
  <path d="M17 14H21C22.1 14 23 14.9 23 16V18C23 19.1 22.1 20 21 20H19V24H17V14ZM19 16V18H21V16H19Z" fill="white" font-weight="bold"/>
</svg>