<svg width="64" height="64" viewBox="0 0 64 64" fill="none" xmlns="http://www.w3.org/2000/svg">
  <!-- Chrome Circle -->
  <circle cx="32" cy="32" r="30" fill="#4285f4"/>
  <circle cx="32" cy="32" r="24" fill="#ea4335"/>
  <circle cx="32" cy="32" r="18" fill="#34a853"/>
  <circle cx="32" cy="32" r="12" fill="#fbbc05"/>
  <circle cx="32" cy="32" r="8" fill="white"/>
  
  <!-- Chrome segments -->
  <path d="M32 8C40.8 8 48.4 13.6 51.2 21.6L40 32L32 20C36.4 20 40 23.6 40 28C40 32.4 36.4 36 32 36C27.6 36 24 32.4 24 28H12.8C15.6 50.4 48.4 50.4 51.2 42.4C54 34.4 48.4 13.6 32 8Z" fill="#4285f4" opacity="0.8"/>
  <path d="M20 44L32 32L24 20C19.6 20 16 23.6 16 28C16 32.4 19.6 36 24 36H12C12 44.8 19.2 52 28 52C36.8 52 44 44.8 44 36L20 44Z" fill="#34a853" opacity="0.8"/>
  <path d="M44 20L32 32L40 44C44.4 44 48 40.4 48 36C48 31.6 44.4 28 40 28H52C52 19.2 44.8 12 36 12C27.2 12 20 19.2 20 28L44 20Z" fill="#ea4335" opacity="0.8"/>
</svg>