<svg width="160" height="40" viewBox="0 0 160 40" fill="none" xmlns="http://www.w3.org/2000/svg">
  <!-- Shield -->
  <g id="shield">
    <path d="M8 6L16 10V16C16 20.5 13.5 24 8 26C2.5 24 0 20.5 0 16V10L8 6Z" fill="#1e293b"/>
    <path d="M8 8L14 11V15.5C14 18.8 11.7 21.5 8 23C4.3 21.5 2 18.8 2 15.5V11L8 8Z" fill="#3b82f6"/>
  </g>

  <!-- Gecko silhouette -->
  <g id="gecko" transform="translate(20, 10)">
    <ellipse cx="6" cy="8" rx="5" ry="3" fill="#00d084"/>
    <circle cx="10.5" cy="6.5" r="2.5" fill="#00d084"/>
    <circle cx="11.5" cy="6" r="0.8" fill="#1e293b"/>
    <path d="M1 8 Q -1 10 1 11" stroke="#00d084" stroke-width="1.5" stroke-linecap="round" fill="none"/>
    <path d="M4 10.5 L3.5 13" stroke="#00d084" stroke-width="1.2" stroke-linecap="round"/>
    <path d="M8 10.5 L7.5 13" stroke="#00d084" stroke-width="1.2" stroke-linecap="round"/>
  </g>

  <!-- Fingerprint -->
  <g id="fingerprint" transform="translate(37, 12)">
    <path d="M6 3 Q7.5 2 9 3" stroke="#8b5cf6" stroke-width="1" fill="none" stroke-linecap="round"/>
    <path d="M4.5 5 Q7.5 2 10.5 5" stroke="#8b5cf6" stroke-width="1" fill="none" stroke-linecap="round"/>
    <path d="M3 7.5 Q7.5 2.5 12 7.5" stroke="#8b5cf6" stroke-width="1" fill="none" stroke-linecap="round"/>
    <path d="M3 10 Q7.5 4.5 12 10" stroke="#8b5cf6" stroke-width="1" fill="none" stroke-linecap="round"/>
    <path d="M4.5 12.5 Q7.5 9 10.5 12.5" stroke="#8b5cf6" stroke-width="1" fill="none" stroke-linecap="round"/>
  </g>

  <!-- Text: Gecko Guard -->
  <text x="55" y="25" font-family="Inter, system-ui, -apple-system, sans-serif" font-size="16" font-weight="700" fill="#1e293b">
    Gecko Guard
  </text>
</svg>
