<svg width="32" height="32" viewBox="0 0 32 32" fill="none" xmlns="http://www.w3.org/2000/svg">
  <!-- Shield background -->
  <path d="M16 2L26 7V14C26 20.5 22 26 16 28C10 26 6 20.5 6 14V7L16 2Z" fill="#1e293b"/>

  <!-- Shield inner -->
  <path d="M16 4L24 8V13.5C24 19 20.5 23.5 16 25.5C11.5 23.5 8 19 8 13.5V8L16 4Z" fill="#3b82f6"/>

  <!-- Gecko symbol -->
  <ellipse cx="13" cy="14" rx="3.5" ry="2.5" fill="#00d084"/>
  <circle cx="16" cy="12.5" r="2" fill="#00d084"/>
  <circle cx="16.8" cy="12" r="0.6" fill="#1e293b"/>

  <!-- Fingerprint accent -->
  <path d="M19 11 Q20 10 21 11" stroke="#8b5cf6" stroke-width="0.8" fill="none"/>
  <path d="M18.5 13 Q20 11 21.5 13" stroke="#8b5cf6" stroke-width="0.8" fill="none"/>
  <path d="M18.5 15 Q20 13 21.5 15" stroke="#8b5cf6" stroke-width="0.8" fill="none"/>
</svg>
