<svg width="48" height="48" viewBox="0 0 48 48" fill="none" xmlns="http://www.w3.org/2000/svg">
  <!-- Shield background -->
  <path d="M24 5L38 12V22C38 31.5 32 40.5 24 43C16 40.5 10 31.5 10 22V12L24 5Z" fill="#1e293b" stroke="none"/>
  
  <!-- Inner shield -->
  <path d="M24 8.5L34 14V21C34 28.5 29.5 35.5 24 38C18.5 35.5 14 28.5 14 21V14L24 8.5Z" fill="#3b82f6" stroke="none"/>
  
  <!-- P letter - made thicker for better visibility -->
  <path d="M20 17H26C27.7 17 29 18.3 29 20V22C29 23.7 27.7 25 26 25H22V31H20V17ZM22 19V23H26V19H22Z" fill="white"/>
</svg>